<?xml version="1.0" standalone="no"?>
<!DOCTYPE svg PUBLIC "-//W3C//DTD SVG 20010904//EN"
 "http://www.w3.org/TR/2001/REC-SVG-20010904/DTD/svg10.dtd">
<svg version="1.0" xmlns="http://www.w3.org/2000/svg"
 width="750.000000pt" height="750.000000pt" viewBox="0 0 750.000000 750.000000"
 preserveAspectRatio="xMidYMid meet">

<g transform="translate(0.000000,750.000000) scale(0.100000,-0.100000)"
fill="#000000" stroke="none">
<path d="M3690 7349 c-81 -16 -164 -30 -193 -33 -15 -1 -30 -6 -34 -9 -3 -4
-18 -7 -32 -7 -29 0 -59 -15 -50 -25 4 -3 26 -1 50 6 24 6 60 13 79 16 19 3
40 10 47 15 6 5 28 9 50 8 21 -1 49 1 63 4 14 3 43 8 64 11 29 5 36 9 25 16
-8 5 -16 8 -19 8 -3 -1 -25 -5 -50 -10z"/>
<path d="M4205 7350 c-13 -21 78 -34 211 -31 72 2 114 -1 119 -8 3 -6 27 -10
53 -10 l47 1 -40 10 c-22 5 -67 13 -100 18 -33 5 -87 14 -120 19 -81 13 -162
13 -170 1z"/>
<path d="M4640 7290 c0 -5 17 -10 38 -9 30 0 33 2 17 9 -28 12 -55 12 -55 0z"/>
<path d="M3273 7267 c-23 -7 -45 -15 -49 -19 -4 -5 -18 -8 -30 -8 -13 0 -26
-4 -29 -10 -3 -5 -17 -10 -30 -10 -13 0 -27 -5 -31 -11 -5 -9 1 -10 22 -5 16
4 43 9 59 12 29 5 61 17 97 35 10 5 29 9 42 9 14 0 28 5 31 10 8 13 -28 11
-82 -3z"/>
<path d="M4760 7270 c8 -5 31 -9 50 -9 32 1 33 2 10 9 -14 4 -36 8 -50 9 -20
1 -22 -1 -10 -9z"/>
<path d="M4850 7256 c0 -10 49 -34 80 -40 19 -3 28 -3 20 1 -8 3 -27 14 -42
24 -23 17 -58 26 -58 15z"/>
<path d="M4970 7202 c0 -7 82 -52 95 -52 3 0 5 4 5 10 0 10 -71 50 -90 50 -5
0 -10 -4 -10 -8z"/>
<path d="M3068 7193 c7 -3 16 -2 19 1 4 3 -2 6 -13 5 -11 0 -14 -3 -6 -6z"/>
<path d="M2955 7155 c-27 -13 -65 -30 -82 -37 -18 -7 -33 -16 -33 -20 0 -5
-11 -8 -24 -8 -13 0 -37 -7 -52 -15 -16 -8 -39 -15 -51 -15 -13 0 -23 -4 -23
-10 0 -5 -5 -10 -11 -10 -5 0 -27 -11 -47 -25 -20 -14 -44 -25 -54 -25 -18 0
-34 -18 -24 -28 4 -3 20 2 35 11 16 9 36 17 44 17 8 0 20 7 27 15 7 8 20 15
30 15 9 0 28 8 41 18 13 10 49 26 79 36 30 10 69 24 85 31 17 7 50 21 75 31
25 10 52 24 60 31 24 22 -18 15 -75 -12z"/>
<path d="M5090 7131 c0 -10 45 -41 60 -41 20 0 9 20 -20 35 -34 17 -40 18 -40
6z"/>
<path d="M5250 7021 c36 -28 76 -61 90 -73 14 -12 41 -31 60 -42 19 -11 45
-31 58 -43 23 -23 42 -30 42 -15 0 12 -44 52 -57 52 -6 0 -13 7 -17 15 -3 8
-10 15 -17 15 -6 0 -34 19 -62 43 -68 57 -106 83 -137 92 -15 5 0 -12 40 -44z"/>
<path d="M2447 6916 c-21 -13 -43 -28 -49 -34 -22 -22 27 -13 50 8 12 11 25
20 30 20 5 0 15 7 22 15 19 23 -7 18 -53 -9z"/>
<path d="M2318 6820 c-41 -38 -47 -57 -14 -44 9 3 16 12 16 20 0 8 6 14 13 14
14 0 47 31 47 43 0 16 -23 4 -62 -33z"/>
<path d="M5510 6831 c0 -6 5 -13 10 -16 6 -3 10 1 10 9 0 9 -4 16 -10 16 -5 0
-10 -4 -10 -9z"/>
<path d="M5570 6771 c0 -6 5 -13 10 -16 6 -3 10 1 10 9 0 9 -4 16 -10 16 -5 0
-10 -4 -10 -9z"/>
<path d="M2216 6730 c-46 -42 -66 -83 -28 -59 26 18 86 89 79 95 -3 3 -26 -13
-51 -36z"/>
<path d="M5610 6732 c0 -12 34 -42 48 -42 7 0 12 -5 12 -12 0 -6 3 -8 7 -5 3
4 -6 21 -22 37 -29 30 -45 38 -45 22z"/>
<path d="M5700 6641 c0 -6 5 -13 10 -16 6 -3 10 1 10 9 0 9 -4 16 -10 16 -5 0
-10 -4 -10 -9z"/>
<path d="M2088 6599 c-13 -17 -42 -50 -65 -73 -43 -42 -138 -174 -131 -182 3
-2 22 17 44 43 21 25 57 67 79 92 92 104 127 151 112 151 -9 0 -26 -14 -39
-31z"/>
<path d="M5780 6552 c0 -14 49 -56 57 -49 3 4 -4 18 -17 32 -24 25 -40 32 -40
17z"/>
<path d="M2100 6485 c-16 -19 0 -19 26 0 16 12 16 14 3 15 -9 0 -22 -7 -29
-15z"/>
<path d="M5880 6465 c0 -3 18 -25 40 -47 24 -25 40 -36 40 -27 0 8 -15 29 -33
47 -31 30 -47 39 -47 27z"/>
<path d="M2057 6438 c-8 -13 -21 -38 -28 -55 -8 -18 -17 -33 -20 -33 -3 0 -11
-19 -18 -42 -7 -24 -17 -51 -22 -60 -5 -10 -9 -26 -9 -36 0 -10 -4 -22 -9 -27
-29 -31 -50 -273 -25 -282 8 -3 13 32 16 110 3 80 9 122 19 138 9 13 19 35 23
49 4 14 13 48 21 75 7 28 30 80 49 118 19 37 31 67 26 67 -5 0 -16 -10 -23
-22z"/>
<path d="M1866 6314 c-9 -24 -7 -28 9 -14 17 14 20 30 6 30 -5 0 -12 -7 -15
-16z"/>
<path d="M2142 6295 c-7 -14 -12 -34 -12 -45 0 -10 -4 -22 -10 -25 -5 -3 -10
-31 -10 -61 0 -31 -5 -64 -11 -75 -6 -12 -8 -28 -4 -36 5 -14 7 -14 20 3 9 12
14 44 15 91 0 39 4 74 9 77 10 7 26 85 19 92 -3 2 -10 -7 -16 -21z"/>
<path d="M5903 6308 c15 -7 27 -18 27 -25 0 -7 5 -13 10 -13 6 0 10 4 10 9 0
13 -22 28 -50 34 -23 6 -22 5 3 -5z"/>
<path d="M5560 6288 c0 -16 5 -28 10 -28 13 0 13 20 0 40 -8 12 -10 9 -10 -12z"/>
<path d="M6020 6298 c0 -9 7 -21 16 -28 8 -8 21 -27 28 -44 14 -33 53 -73 62
-64 8 9 -25 68 -42 75 -7 3 -14 11 -14 17 0 7 -11 23 -25 36 -19 18 -25 20
-25 8z"/>
<path d="M1819 6216 c-64 -102 -115 -225 -76 -184 18 20 109 206 105 217 -1 5
-15 -10 -29 -33z"/>
<path d="M3727 6253 c-5 -4 -70 -11 -145 -15 -377 -19 -509 -29 -527 -37 -11
-5 -70 -14 -131 -19 -61 -5 -119 -14 -130 -20 -24 -13 -77 -26 -179 -45 -44
-9 -96 -20 -115 -26 -47 -13 -128 -39 -165 -52 -16 -6 -41 -13 -55 -16 -14 -2
-34 -8 -45 -13 -11 -5 -40 -16 -65 -24 -81 -26 -214 -95 -290 -150 -41 -30
-79 -55 -85 -56 -19 -2 -94 -77 -104 -104 -14 -36 -41 -34 -41 3 0 17 5 33 10
36 6 3 10 26 10 49 0 24 7 60 15 79 8 20 14 51 14 69 -1 27 -2 29 -6 8 -3 -14
-9 -29 -14 -35 -5 -5 -9 -21 -9 -36 0 -15 -4 -31 -10 -34 -5 -3 -10 -24 -10
-45 0 -22 -5 -62 -11 -90 -10 -48 -12 -50 -45 -50 -36 0 -77 -32 -89 -70 -3
-10 -31 -28 -63 -41 -31 -12 -80 -37 -108 -55 -28 -17 -61 -35 -75 -39 -25 -7
-120 -56 -129 -65 -3 -3 -17 -11 -31 -17 -15 -6 -44 -32 -65 -57 -21 -25 -46
-46 -55 -46 -9 0 -22 -7 -29 -15 -7 -8 -18 -15 -24 -15 -12 0 -76 -66 -76 -78
0 -3 -22 -26 -48 -51 -52 -49 -102 -113 -102 -130 0 -6 -9 -15 -19 -21 -20
-10 -51 -63 -51 -85 0 -27 -41 -65 -70 -65 -24 0 -39 -12 -84 -71 -31 -39 -54
-75 -51 -79 3 -4 -9 -23 -26 -41 -35 -38 -104 -146 -114 -181 -4 -13 -11 -27
-15 -33 -4 -5 -13 -32 -21 -59 -8 -30 -30 -67 -55 -95 l-41 -46 -6 -138 c-7
-141 -17 -181 -59 -236 -16 -21 -19 -41 -17 -120 2 -127 10 -201 20 -201 5 0
6 57 3 129 -7 138 -1 173 40 219 19 21 21 38 24 155 1 73 5 142 7 154 3 12 25
45 50 74 25 29 45 60 45 69 0 9 3 20 7 24 9 9 33 78 33 97 0 9 9 24 20 34 11
10 20 25 20 34 0 9 12 27 25 40 14 13 25 32 25 42 0 10 7 19 15 19 8 0 15 -7
15 -15 0 -8 5 -15 10 -15 6 0 10 17 10 38 0 27 9 51 30 80 17 23 30 46 30 50
0 18 47 52 71 52 36 0 55 18 78 73 11 26 24 47 29 47 5 0 19 -12 33 -26 28
-30 79 -59 79 -45 0 6 -10 16 -22 22 -33 17 -78 61 -78 76 0 7 12 25 27 41 16
16 44 51 63 77 50 67 163 181 187 189 11 4 28 15 38 26 10 11 25 20 33 20 8 0
31 18 51 39 29 32 142 102 174 107 4 1 11 2 16 3 5 0 17 9 27 19 10 9 30 22
44 27 132 49 167 70 184 107 10 25 24 40 42 44 33 9 42 -2 46 -55 2 -25 8 -46
14 -48 8 -3 10 12 6 46 -4 47 -3 51 21 60 14 6 30 17 35 27 5 9 31 20 60 25
28 6 91 29 139 53 79 38 122 54 203 75 47 12 87 1 124 -35 28 -28 37 -32 42
-20 3 8 3 19 0 25 -7 11 29 25 194 76 63 20 123 41 132 46 10 5 26 9 36 9 10
0 22 4 28 10 14 14 136 40 229 49 80 8 114 16 212 54 44 17 57 18 96 8 71 -17
195 -14 263 8 102 33 123 35 130 14 3 -10 10 -26 15 -35 5 -10 9 -38 9 -63 0
-25 5 -45 10 -45 14 0 13 93 -1 107 -7 7 -9 19 -6 27 5 13 23 16 87 16 l80 0
0 -45 c0 -57 18 -59 22 -2 l3 42 60 7 c271 32 295 32 475 3 52 -9 136 -22 185
-29 148 -23 229 -38 250 -47 11 -4 45 -11 75 -14 59 -7 198 -42 215 -54 5 -4
28 -13 50 -20 22 -7 49 -16 60 -21 43 -20 266 -90 284 -90 16 0 21 -9 26 -52
3 -29 4 -72 3 -95 -2 -23 1 -42 7 -42 6 0 9 19 7 45 -5 65 6 114 25 114 20 0
134 -40 147 -52 6 -4 19 -8 31 -8 12 0 26 -5 31 -10 6 -6 39 -19 75 -29 35
-11 91 -31 124 -45 l60 -25 3 -83 c4 -108 22 -129 22 -26 0 43 5 80 10 83 6 4
22 0 35 -9 13 -9 33 -16 44 -16 25 0 35 -25 32 -82 -2 -30 1 -48 8 -48 6 0 11
17 11 38 0 51 7 56 42 31 16 -12 35 -19 42 -16 15 6 74 -32 125 -80 18 -17 50
-39 70 -50 20 -10 52 -30 72 -45 20 -16 42 -28 48 -28 6 0 11 -9 11 -20 0 -29
26 -76 45 -84 9 -3 34 -6 54 -6 34 0 45 -7 103 -67 35 -38 101 -104 146 -147
45 -43 82 -84 82 -91 0 -7 7 -18 15 -25 8 -7 19 -26 24 -44 5 -17 19 -56 30
-86 26 -67 27 -136 4 -162 -9 -10 -13 -21 -9 -25 12 -12 55 50 56 80 0 26 2
27 23 16 12 -7 26 -17 30 -23 5 -7 7 -3 5 9 -2 11 -14 22 -27 25 -28 6 -59 53
-60 88 -1 13 -7 36 -15 50 -8 15 -20 43 -27 62 -8 22 -73 95 -174 198 -154
155 -163 162 -201 162 -54 0 -82 22 -86 67 -3 32 -9 39 -52 62 -27 14 -58 34
-69 43 -10 9 -32 22 -48 28 -33 14 -49 57 -47 128 0 24 -5 49 -11 55 -9 9 -10
-4 -5 -55 4 -38 3 -68 -2 -68 -5 0 -20 12 -33 25 -13 14 -35 28 -50 31 -25 5
-91 34 -101 44 -3 3 -18 12 -35 20 -16 8 -32 18 -35 21 -3 3 -24 18 -48 33
-46 28 -65 43 -122 94 -21 17 -41 32 -46 32 -5 0 -34 20 -65 44 -69 54 -249
140 -349 166 -57 15 -206 66 -245 85 -43 20 -163 55 -189 55 -12 0 -26 4 -31
8 -19 17 -101 40 -180 52 -44 6 -91 13 -105 16 -14 3 -50 9 -80 14 -30 5 -82
14 -115 20 -61 11 -117 19 -280 40 -49 6 -99 15 -110 20 -11 5 -36 12 -55 15
-54 11 -344 17 -353 8z m156 -178 c2 -11 -87 -20 -110 -11 -8 3 -11 11 -8 16
8 14 114 9 118 -5z"/>
<path d="M5582 6208 c-2 -52 18 -117 26 -84 2 10 -1 28 -7 40 -6 11 -12 37
-14 56 -3 29 -4 27 -5 -12z"/>
<path d="M5960 6246 c0 -2 11 -24 25 -47 14 -24 25 -41 25 -37 0 15 -35 88
-42 88 -5 0 -8 -2 -8 -4z"/>
<path d="M2202 6170 c-32 -63 -41 -110 -22 -110 6 0 10 9 10 20 0 11 12 44 26
74 37 78 24 93 -14 16z"/>
<path d="M5437 6224 c-3 -4 0 -19 8 -33 7 -15 17 -55 21 -89 3 -34 11 -62 16
-62 11 0 -1 124 -13 128 -5 2 -9 17 -9 33 0 27 -9 37 -23 23z"/>
<path d="M6020 6136 c0 -9 5 -16 10 -16 6 0 10 4 10 9 0 6 -4 13 -10 16 -5 3
-10 -1 -10 -9z"/>
<path d="M6130 6144 c0 -16 24 -64 32 -64 4 0 2 12 -4 28 -14 32 -28 50 -28
36z"/>
<path d="M5890 6121 c0 -5 5 -13 10 -16 6 -3 10 -2 10 4 0 5 -4 13 -10 16 -5
3 -10 2 -10 -4z"/>
<path d="M6040 6091 c0 -12 4 -21 10 -21 5 0 10 -17 10 -37 -1 -21 3 -54 9
-73 l9 -35 1 37 c1 46 -17 136 -30 144 -5 3 -9 -4 -9 -15z"/>
<path d="M5910 6081 c0 -6 4 -13 10 -16 6 -3 7 1 4 9 -7 18 -14 21 -14 7z"/>
<path d="M6174 6045 c9 -43 11 -49 17 -60 4 -5 9 -22 13 -37 3 -16 11 -28 16
-28 14 0 13 8 -11 75 -23 67 -46 99 -35 50z"/>
<path d="M5930 6038 c0 -9 4 -18 10 -20 5 -1 13 -31 16 -66 7 -62 25 -104 40
-89 5 4 3 17 -4 27 -7 11 -12 31 -12 44 0 14 -4 28 -10 31 -5 3 -10 16 -10 28
0 12 -7 31 -15 41 -12 16 -15 17 -15 4z"/>
<path d="M1704 5995 c-8 -21 6 -41 17 -24 12 19 11 39 -1 39 -6 0 -13 -7 -16
-15z"/>
<path d="M5867 5885 c6 -67 23 -100 23 -44 0 19 -4 39 -9 45 -5 5 -12 20 -14
34 -3 14 -3 -2 0 -35z"/>
<path d="M6231 5887 c-1 -26 43 -136 60 -147 4 -3 9 -14 12 -25 2 -11 3 1 0
28 -2 30 -14 62 -32 90 -16 23 -31 51 -34 62 -3 15 -5 13 -6 -8z"/>
<path d="M4465 5672 c-13 -13 -2 -21 38 -27 54 -9 156 -33 182 -44 11 -5 37
-15 57 -24 26 -11 39 -13 44 -6 8 14 -9 25 -71 45 -50 16 -69 23 -115 42 -28
12 -127 22 -135 14z"/>
<path d="M6323 5645 c0 -22 2 -30 4 -17 2 12 2 30 0 40 -3 9 -5 -1 -4 -23z"/>
<path d="M3305 5661 c-3 -6 -26 -11 -49 -11 -28 0 -48 -6 -57 -16 -13 -15 -9
-16 46 -11 131 13 166 20 162 31 -5 14 -93 20 -102 7z"/>
<path d="M6334 5596 c-3 -8 -1 -23 5 -33 9 -15 10 -13 11 15 0 34 -7 42 -16
18z"/>
<path d="M4350 5550 c0 -14 44 -30 80 -30 16 0 31 -4 34 -9 3 -4 23 -11 44
-14 35 -4 68 -16 138 -49 25 -12 58 -7 56 7 0 5 -17 13 -37 17 -19 4 -53 17
-74 27 -21 11 -69 25 -107 31 -38 7 -77 16 -86 21 -24 12 -48 11 -48 -1z"/>
<path d="M3190 5530 c0 -5 7 -10 15 -10 8 0 15 5 15 10 0 6 -7 10 -15 10 -8 0
-15 -4 -15 -10z"/>
<path d="M3807 5454 c-5 -5 -92 -10 -195 -11 -103 -1 -218 -7 -257 -12 -38 -6
-88 -13 -110 -16 -22 -4 -49 -10 -60 -15 -11 -4 -42 -15 -70 -23 -74 -24 -124
-42 -131 -50 -4 -4 -20 -7 -35 -7 -15 0 -30 -4 -33 -9 -3 -4 -27 -14 -53 -21
-27 -7 -52 -16 -58 -20 -5 -4 -26 -11 -45 -15 -31 -6 -59 -18 -110 -46 -8 -5
-35 -18 -60 -30 -128 -61 -231 -117 -299 -165 -42 -30 -107 -75 -146 -101 -38
-26 -96 -69 -128 -95 -32 -26 -62 -48 -68 -48 -15 0 -199 -190 -209 -216 -6
-14 -17 -27 -27 -31 -19 -8 -85 -70 -99 -94 -40 -71 -208 -235 -274 -267 -32
-16 -250 -244 -250 -262 0 -8 8 -10 23 -5 12 3 42 11 67 16 80 16 173 53 319
126 47 24 87 41 89 38 3 -2 -5 -28 -18 -57 -35 -82 -70 -160 -85 -188 -7 -14
-16 -41 -20 -60 -4 -19 -11 -39 -15 -45 -4 -5 -10 -21 -13 -35 -3 -14 -13 -45
-22 -70 -10 -25 -21 -58 -25 -75 -5 -16 -25 -75 -44 -130 -20 -55 -36 -110
-36 -121 0 -12 -6 -27 -14 -33 -8 -6 -17 -26 -21 -44 -13 -55 -17 -250 -6
-287 5 -19 13 -61 18 -93 9 -65 23 -77 36 -32 5 17 14 50 21 75 30 105 49 166
57 185 5 11 18 45 29 75 54 154 69 191 89 218 11 17 21 35 21 40 0 5 6 12 13
15 11 4 13 -43 13 -253 -1 -244 0 -259 19 -280 17 -19 22 -46 31 -191 8 -121
16 -174 26 -187 8 -9 23 -44 33 -77 10 -33 21 -64 26 -69 19 -21 9 -78 -21
-116 -16 -21 -30 -42 -30 -47 0 -15 -25 -63 -32 -63 -5 0 -8 -9 -8 -19 0 -11
-5 -23 -10 -26 -5 -3 -10 -15 -10 -26 0 -11 -6 -30 -14 -42 -17 -28 -40 -130
-33 -148 6 -18 26 32 36 91 4 25 17 61 29 80 12 19 22 42 22 51 0 9 9 28 20
42 11 14 20 30 20 36 0 11 36 69 69 113 25 31 26 38 6 38 -13 0 -21 20 -41
105 -4 17 -17 49 -30 73 -18 33 -26 69 -34 155 -17 195 -15 214 25 254 32 32
39 35 73 28 42 -7 101 -50 119 -86 26 -52 27 -57 42 -194 7 -72 30 -169 44
-192 10 -16 -20 -108 -37 -111 -18 -4 -21 19 -7 46 24 47 22 71 -10 106 -28
33 -30 40 -29 103 3 105 -17 168 -71 221 -40 39 -79 50 -96 27 -13 -19 -28
-116 -20 -137 4 -12 14 19 31 95 9 38 29 34 79 -19 49 -51 57 -79 57 -209 0
-63 3 -74 25 -95 35 -33 32 -64 -8 -94 -19 -15 -39 -26 -45 -26 -7 0 -12 -4
-12 -10 0 -13 13 -13 27 1 15 15 66 -13 80 -44 9 -19 7 -36 -9 -83 -12 -32
-27 -97 -34 -144 -7 -47 -18 -107 -25 -135 -6 -27 -11 -65 -10 -84 1 -19 -10
-53 -26 -82 -36 -66 -24 -72 17 -8 30 46 34 61 42 157 4 58 12 110 18 116 5 5
10 29 10 53 0 24 4 51 9 61 16 27 39 113 46 167 4 28 13 66 22 85 50 119 49
117 108 139 31 12 69 21 86 21 29 0 98 -31 127 -58 27 -24 51 -32 82 -25 17 3
34 12 37 19 2 6 16 15 30 19 14 3 37 13 51 23 27 18 31 19 79 28 29 6 38 1 80
-41 27 -26 66 -60 89 -76 l41 -28 64 19 c110 34 175 24 203 -31 12 -24 36 -37
36 -20 0 6 -8 18 -19 28 -10 10 -24 29 -31 42 -11 22 -16 23 -101 19 -66 -3
-93 -9 -108 -22 -19 -17 -21 -17 -63 12 -24 16 -65 51 -91 77 l-48 48 -59 -6
c-37 -3 -70 -13 -89 -26 -16 -12 -32 -21 -36 -21 -4 0 -20 -11 -36 -24 -30
-25 -61 -25 -86 0 -7 7 -18 14 -25 16 -18 6 -1 38 20 38 11 0 25 7 32 15 7 8
27 15 44 15 51 0 75 42 41 70 -8 7 -15 21 -15 31 0 26 -53 25 -105 -1 -22 -11
-45 -20 -53 -20 -7 0 -37 -11 -65 -24 -61 -27 -142 -39 -156 -22 -5 6 -16 44
-25 83 -19 85 -12 105 44 130 19 8 29 17 23 20 -7 3 -13 21 -13 41 -1 52 -26
80 -75 84 l-40 3 2 63 c2 35 7 71 13 81 5 10 19 74 31 142 13 79 29 138 44
164 13 22 35 81 49 130 14 50 30 104 35 120 5 17 15 51 22 77 7 26 16 45 20
42 4 -2 8 -56 8 -120 1 -64 6 -137 12 -162 6 -29 7 -54 1 -67 -15 -32 -32 -90
-32 -106 0 -9 8 -4 20 11 12 16 17 33 13 48 -4 19 -1 22 25 22 41 0 55 38 54
150 -1 49 3 92 9 95 5 4 9 26 9 51 0 24 4 44 10 44 5 0 30 -13 56 -30 26 -16
63 -35 82 -41 l34 -11 -33 -15 c-103 -45 -139 -67 -139 -85 0 -15 17 -9 41 15
13 13 44 29 69 36 110 30 114 30 143 16 37 -19 106 -31 92 -17 -5 5 -35 20
-65 32 -80 32 -88 35 -165 68 -38 16 -83 35 -99 41 l-29 12 6 75 c6 84 14 99
56 107 16 3 35 12 42 19 8 7 28 19 44 27 17 7 37 17 45 22 8 5 34 17 57 28 33
15 41 24 37 38 -5 15 -4 15 5 3 9 -12 14 -13 31 -2 42 26 46 18 58 -120 15
-153 32 -238 48 -238 12 0 16 18 33 135 5 33 14 83 20 110 7 28 14 69 18 93 3
23 10 45 14 48 5 3 9 17 9 32 0 25 51 82 73 82 5 0 21 8 35 19 39 27 162 91
176 91 7 0 21 7 32 15 16 12 17 16 4 24 -8 6 -11 14 -6 18 5 4 11 2 13 -4 7
-19 48 -16 66 5 14 15 17 40 17 124 0 99 -2 107 -26 133 -20 22 -31 26 -52 21
-15 -4 -49 -11 -75 -16 -26 -5 -57 -12 -68 -15 -17 -6 -14 5 22 77 49 98 47
94 80 144 31 47 48 79 89 164 43 90 141 261 166 292 24 31 91 53 128 44 l26
-6 0 -150 c0 -83 4 -158 10 -168 5 -9 14 -62 19 -117 12 -121 25 -205 41 -265
6 -25 15 -65 19 -90 8 -43 13 -60 31 -105 4 -11 13 -36 20 -55 7 -19 21 -54
31 -77 11 -24 19 -47 19 -53 0 -9 40 -102 65 -150 7 -14 16 -41 20 -60 4 -19
18 -55 30 -80 13 -25 46 -97 75 -160 28 -63 64 -132 80 -152 34 -42 37 -58 13
-59 -27 -1 52 -28 100 -34 76 -10 249 -6 263 6 11 9 18 8 29 -1 13 -11 18 -10
29 6 20 26 13 29 -36 15 -25 -7 -88 -11 -147 -9 -127 4 -125 1 -176 178 -20
69 -42 132 -49 140 -7 8 -18 35 -25 60 -8 25 -19 65 -26 90 -7 25 -16 81 -19
125 -3 44 -10 96 -16 115 -9 34 -6 325 6 503 4 59 2 93 -6 102 -12 14 -8 201
6 326 8 70 25 76 57 19 10 -19 27 -44 37 -55 10 -11 27 -39 39 -61 11 -23 26
-48 33 -55 16 -17 46 -96 63 -164 11 -46 31 -92 46 -105 12 -11 59 -103 59
-116 0 -7 8 -28 18 -46 18 -32 27 -58 58 -168 9 -30 20 -69 25 -86 5 -17 9
-45 9 -63 0 -20 9 -44 24 -62 22 -26 56 -117 56 -151 0 -24 39 -137 57 -164 9
-15 20 -47 24 -73 6 -44 21 -91 42 -138 8 -18 6 -27 -6 -41 -36 -40 -5 -44 53
-7 22 14 47 25 56 25 8 0 47 16 86 35 64 31 75 34 134 28 36 -3 67 -10 70 -14
3 -5 17 -9 32 -9 l27 0 -29 15 c-15 8 -41 15 -57 15 -46 0 -42 17 9 30 26 7
52 17 59 22 6 5 24 8 40 6 21 -2 29 -10 33 -33 4 -16 12 -40 18 -52 8 -15 9
-24 2 -28 -6 -4 -2 -13 10 -23 11 -9 35 -63 54 -119 32 -96 79 -174 112 -187
7 -3 15 -26 17 -53 5 -59 -1 270 -9 502 l-6 170 21 -19 c11 -11 21 -24 21 -29
0 -6 7 -18 16 -28 19 -21 43 -110 55 -209 5 -41 14 -95 19 -120 11 -51 26
-507 23 -680 -1 -63 -7 -134 -14 -158 -6 -23 -9 -45 -6 -48 13 -13 65 64 87
127 45 135 50 76 15 -221 -21 -183 -29 -236 -42 -252 -5 -7 -13 -30 -16 -51
-3 -21 -20 -59 -36 -84 -17 -26 -31 -52 -31 -58 0 -21 -33 -79 -65 -116 -18
-20 -34 -40 -36 -45 -2 -6 -19 -20 -37 -33 -18 -13 -66 -62 -105 -110 -110
-132 -258 -257 -397 -335 -19 -11 -39 -25 -45 -32 -14 -18 -182 -103 -225
-114 -19 -5 -66 -17 -105 -26 -38 -9 -78 -20 -87 -25 -10 -5 -35 -9 -56 -9
-21 0 -42 -4 -48 -9 -5 -6 -65 -15 -134 -20 -134 -12 -462 0 -483 17 -7 5 -28
12 -47 16 -116 22 -140 26 -190 31 -39 4 -49 3 -35 -4 11 -5 31 -10 44 -10 36
-1 86 -45 117 -101 15 -28 33 -50 39 -50 15 0 41 37 47 65 3 19 11 20 133 17
72 -1 159 -5 195 -8 76 -6 321 13 334 27 6 5 25 9 43 9 18 0 33 4 33 9 0 5 15
11 33 14 134 24 187 37 187 48 0 5 18 12 40 15 22 4 45 13 51 20 6 8 17 14 25
14 7 0 20 7 29 16 21 21 33 9 17 -16 -7 -11 -12 -31 -12 -44 0 -14 -4 -28 -10
-31 -6 -4 -10 -57 -10 -125 0 -68 4 -121 10 -125 6 -3 10 -16 10 -29 0 -14 16
-37 40 -60 22 -20 40 -42 40 -49 -1 -34 -58 -155 -84 -176 -9 -8 -16 -17 -16
-22 0 -5 -12 -28 -27 -52 -15 -23 -36 -58 -46 -79 -23 -46 -72 -97 -145 -150
-31 -23 -80 -62 -108 -88 -42 -38 -64 -49 -125 -64 -105 -26 -245 -31 -304
-12 -25 9 -68 16 -96 16 -29 0 -48 4 -44 10 3 5 -7 17 -22 26 -15 10 -33 22
-38 28 -17 18 -73 56 -83 56 -5 0 -14 10 -21 22 -6 13 -25 46 -41 73 -16 28
-29 61 -30 75 0 15 -5 31 -11 37 -5 5 -13 36 -16 67 -3 31 -10 59 -14 62 -5 3
-5 13 0 22 4 9 11 40 14 67 7 64 33 115 58 115 16 0 15 5 -13 45 -33 47 -85
78 -121 73 -12 -2 -31 -18 -42 -36 -19 -31 -22 -32 -76 -30 -56 3 -57 3 -91
-42 -29 -38 -40 -45 -73 -48 -22 -2 -44 -8 -49 -13 -6 -5 -24 -9 -41 -9 -17 0
-35 -4 -41 -9 -14 -13 -72 -22 -79 -12 -3 5 8 23 25 39 16 17 30 39 30 49 -1
14 -6 12 -25 -12 -37 -44 -55 -87 -44 -101 7 -8 24 -6 67 8 31 10 68 21 82 23
14 3 43 9 65 14 22 6 41 8 43 7 2 -2 -9 -44 -23 -92 -15 -49 -31 -107 -37
-129 -5 -22 -14 -49 -19 -60 -4 -11 -13 -51 -18 -90 -9 -66 -19 -99 -40 -135
-17 -28 -70 -155 -77 -184 -4 -16 -17 -45 -29 -63 -13 -18 -31 -53 -41 -78
-22 -52 -39 -60 -30 -12 4 17 9 58 13 91 4 47 3 58 -8 54 -9 -3 -17 -31 -22
-84 -7 -74 -6 -80 14 -96 12 -10 29 -18 38 -18 9 0 41 -7 71 -15 49 -14 97
-23 290 -55 161 -27 480 -53 660 -54 196 0 476 21 655 50 50 8 115 19 145 24
150 24 326 67 461 111 30 11 62 19 71 19 20 0 32 44 18 70 -5 10 -10 52 -11
92 0 40 -4 105 -10 143 -5 39 -11 120 -13 180 -4 98 -1 117 21 178 22 60 28
68 47 63 11 -3 41 -8 66 -12 24 -4 67 -16 95 -26 62 -24 57 -23 77 -14 17 8
36 0 135 -54 27 -14 82 -51 188 -125 8 -5 18 -6 22 -1 4 5 0 13 -11 20 -10 6
-39 27 -65 47 -25 20 -96 62 -157 94 -89 46 -124 59 -177 64 -37 4 -69 9 -72
12 -3 3 -18 30 -33 60 -40 80 -75 99 -182 99 -83 0 -87 1 -116 31 -57 60 -87
72 -162 64 -70 -7 -107 -28 -131 -74 -7 -11 -18 -21 -25 -21 -19 0 -52 41 -61
75 -13 53 -17 207 -6 218 6 6 11 23 11 39 0 43 38 118 60 118 5 0 15 -18 24
-40 9 -22 21 -40 27 -40 7 0 26 16 45 35 25 27 41 35 68 35 19 0 38 5 41 10 3
6 17 10 31 10 13 0 32 4 42 9 86 42 92 44 141 37 36 -5 60 -2 88 10 64 28 76
32 141 44 34 7 62 17 62 21 0 12 -28 11 -92 -2 -56 -12 -70 -17 -128 -41 -31
-13 -39 -14 -55 -2 -11 8 -28 11 -44 7 -21 -5 -9 11 58 83 46 49 88 91 94 93
7 2 8 -19 3 -62 -5 -56 -4 -66 11 -71 24 -10 126 103 163 179 20 41 53 83 104
133 41 39 79 72 84 72 6 0 12 7 16 15 3 8 13 15 22 15 9 0 29 10 46 22 44 34
178 162 178 171 0 5 18 30 41 55 51 59 85 124 105 205 8 34 19 71 23 82 41 96
51 158 51 313 0 159 7 195 32 175 32 -27 109 -63 132 -63 29 0 34 21 10 41 -9
7 -29 38 -45 68 -16 31 -33 63 -39 71 -5 8 -21 42 -36 75 -14 33 -33 68 -41
78 -9 9 -14 20 -10 23 6 6 84 -18 119 -37 10 -5 27 -9 38 -9 12 0 33 -6 48
-14 37 -19 102 -31 102 -19 0 6 -9 18 -20 28 -11 10 -20 23 -20 29 -1 15 -80
101 -106 114 -26 14 -104 128 -111 164 -3 15 -12 33 -19 39 -8 6 -14 19 -14
28 0 9 -4 21 -8 27 -5 5 -16 30 -26 56 -9 25 -24 52 -32 58 -7 7 -14 19 -14
27 0 8 -8 27 -18 41 -10 15 -29 58 -41 97 -28 88 -88 203 -112 216 -11 5 -28
27 -38 48 -11 20 -27 44 -37 52 -9 8 -46 57 -81 109 -112 168 -220 289 -289
325 -50 25 -164 108 -219 158 -28 26 -57 47 -63 47 -6 0 -16 9 -22 20 -6 11
-16 20 -22 20 -7 0 -21 9 -32 19 -32 29 -94 61 -159 82 -32 10 -75 31 -95 46
-45 34 -72 51 -92 59 -8 3 -38 16 -66 30 -28 13 -73 28 -100 34 -27 6 -58 14
-69 20 -54 25 -270 81 -410 107 -97 18 -257 28 -268 17z m-1023 -386 c-3 -18
-14 -62 -25 -98 -10 -36 -25 -114 -34 -175 -26 -192 -29 -201 -91 -240 -30
-19 -57 -35 -60 -35 -3 0 -19 -11 -36 -25 -16 -14 -36 -25 -44 -25 -20 0 -14
19 41 135 23 50 53 117 65 150 13 33 28 66 33 73 15 19 43 70 78 142 28 58 70
130 76 130 1 0 0 -15 -3 -32z m1983 -429 c12 -35 22 -81 23 -101 0 -41 49
-160 91 -223 14 -22 30 -56 34 -75 10 -50 52 -156 86 -218 17 -30 29 -60 27
-69 -3 -14 -183 -82 -220 -83 -9 0 -34 -11 -54 -25 -20 -14 -43 -25 -50 -25
-7 0 -28 -8 -46 -18 -44 -25 -76 -32 -81 -19 -2 6 7 41 19 77 12 36 27 99 33
140 20 128 23 145 34 158 6 8 14 57 18 110 18 247 32 418 35 430 8 28 30 3 51
-59z m-1605 31 c23 -41 15 -57 -26 -52 -48 6 -76 -12 -76 -49 0 -17 5 -39 11
-50 8 -15 7 -26 -4 -42 -25 -39 -88 -97 -105 -97 -8 0 -31 -5 -49 -12 -54 -20
-59 -3 -29 91 14 44 26 85 26 91 0 6 12 29 27 52 20 29 43 48 81 65 29 13 57
21 61 19 4 -3 13 -1 21 5 26 16 45 10 62 -21z m-482 -130 c0 -11 -7 -20 -15
-20 -18 0 -19 12 -3 28 16 16 18 15 18 -8z m-18 -81 c-5 -66 -35 -139 -56
-139 -3 0 -6 9 -6 19 0 11 -4 23 -10 26 -5 3 -10 24 -10 45 0 32 6 43 33 64
40 32 53 28 49 -15z m-112 -73 c0 -41 4 -86 9 -100 8 -20 5 -32 -23 -68 -18
-24 -41 -57 -50 -74 -19 -31 -97 -86 -128 -89 -22 -2 -22 9 -2 82 9 32 20 74
25 94 18 76 68 163 111 196 24 18 46 33 51 33 4 0 7 -33 7 -74z m520 34 c0 -5
-2 -10 -4 -10 -3 0 -8 5 -11 10 -3 6 -1 10 4 10 6 0 11 -4 11 -10z m2850
-1195 c16 -8 34 -24 40 -34 5 -11 26 -25 45 -31 25 -8 37 -19 42 -38 3 -14 12
-37 19 -51 22 -42 18 -212 -7 -296 -11 -39 -22 -79 -24 -90 -11 -55 -18 -81
-25 -90 -4 -5 -10 -23 -14 -40 -12 -49 -61 -147 -95 -189 -17 -21 -31 -42 -31
-46 0 -11 -162 -170 -173 -170 -5 0 -20 -9 -34 -20 -14 -11 -32 -20 -39 -20
-7 0 -30 -11 -50 -25 -32 -22 -47 -25 -126 -25 -86 0 -128 10 -128 31 0 5 17
31 38 58 21 27 43 61 49 77 5 16 16 45 23 64 7 19 15 48 17 64 7 35 40 76 63
76 21 0 93 35 107 52 34 42 53 92 53 143 0 29 -4 57 -10 60 -14 9 -12 67 4 88
7 9 20 15 28 12 17 -7 48 -67 48 -95 0 -10 5 -22 10 -25 6 -3 10 -42 10 -86 0
-60 3 -80 13 -76 14 4 11 146 -4 161 -5 6 -9 18 -9 27 0 23 -42 100 -57 106
-7 3 -13 12 -13 20 0 21 32 73 45 73 5 0 19 14 30 32 42 66 49 74 88 102 53
37 71 27 75 -43 4 -70 22 -65 22 7 0 64 -11 82 -50 82 -29 0 -100 -45 -100
-63 0 -7 -9 -18 -20 -25 -11 -7 -20 -18 -20 -25 0 -8 -12 -24 -26 -38 -14 -13
-35 -42 -46 -64 -11 -22 -30 -51 -40 -66 -21 -27 -21 -46 -2 -152 11 -63 -34
-136 -107 -173 -59 -30 -65 -22 -45 55 7 29 11 61 9 71 -3 10 0 21 6 24 6 4
11 15 11 25 0 16 26 88 49 131 9 19 56 171 71 231 16 63 93 156 167 202 67 41
74 42 113 22z m-3895 -273 c8 -39 -8 -75 -44 -102 l-31 -21 0 75 0 76 34 0
c30 0 35 -4 41 -28z m-55 -203 c0 -11 13 -51 29 -89 l30 -69 -25 -16 c-15 -9
-24 -25 -24 -40 0 -42 -15 -28 -33 30 -20 66 -22 121 -5 174 13 40 28 46 28
10z m426 -60 c16 -33 9 -48 -24 -49 -7 0 -37 -11 -65 -24 -44 -21 -59 -23 -97
-16 -25 5 -49 9 -54 10 -22 1 46 39 114 64 41 16 82 32 90 36 8 5 16 9 17 9 1
1 10 -13 19 -30z m2594 -1028 c17 -51 9 -68 -35 -77 -19 -3 -38 -10 -41 -15
-7 -11 -44 -12 -44 -1 0 5 15 26 33 48 19 21 39 49 46 62 17 31 26 28 41 -17z"/>
<path d="M5811 2842 c19 -22 38 -35 43 -31 9 8 -48 69 -66 69 -5 0 5 -17 23
-38z"/>
<path d="M5831 2472 c-6 -12 -11 -27 -11 -34 0 -7 7 0 15 16 9 16 13 31 11 33
-2 3 -9 -4 -15 -15z"/>
<path d="M5756 2381 c-3 -5 -43 -11 -88 -13 -69 -4 -91 -10 -130 -34 -74 -45
-59 -60 19 -19 56 30 76 35 133 35 61 0 90 10 90 32 0 11 -17 10 -24 -1z"/>
<path d="M5440 2250 c-8 -5 -11 -12 -7 -16 4 -4 13 -2 19 4 15 15 7 24 -12 12z"/>
<path d="M5360 5221 c0 -12 23 -31 38 -31 8 0 31 -13 52 -30 21 -16 41 -30 45
-30 4 0 29 -18 55 -40 45 -38 70 -49 70 -32 0 7 -155 124 -174 131 -6 2 -18 9
-26 16 -18 15 -60 26 -60 16z"/>
<path d="M1590 4964 c0 -8 -15 -21 -34 -29 -19 -8 -37 -19 -41 -25 -4 -6 -21
-16 -38 -24 -35 -15 -114 -92 -105 -102 4 -3 23 10 43 29 20 19 48 41 63 48
15 8 29 17 32 20 3 3 31 20 63 38 47 27 56 36 46 47 -15 18 -29 18 -29 -2z"/>
<path d="M1641 4922 c-47 -38 -210 -202 -244 -246 -35 -44 -17 -48 21 -4 62
71 186 198 195 198 11 0 67 59 67 71 0 12 -1 12 -39 -19z"/>
<path d="M6130 4920 c0 -5 10 -15 23 -21 12 -7 65 -51 118 -98 114 -102 141
-123 148 -115 7 6 -110 115 -159 148 -19 13 -51 40 -69 60 -34 35 -61 47 -61
26z"/>
<path d="M5950 4791 c0 -6 12 -18 26 -28 37 -26 107 -95 120 -117 6 -11 19
-24 30 -30 10 -6 22 -15 25 -20 4 -5 15 -6 25 -2 16 6 14 9 -12 25 -16 10 -59
48 -94 85 -63 66 -120 107 -120 87z"/>
<path d="M510 4663 c0 -12 80 -103 91 -103 16 0 10 18 -8 25 -10 3 -29 23 -43
45 -22 37 -40 51 -40 33z"/>
<path d="M7176 4513 c-9 -21 14 -45 32 -34 12 7 12 12 1 30 -17 25 -25 27 -33
4z"/>
<path d="M7251 4430 c6 -19 19 -53 29 -75 25 -55 50 -144 49 -180 0 -61 1 -71
13 -110 6 -22 20 -49 30 -61 10 -11 18 -25 18 -31 0 -5 9 -18 20 -28 28 -25
36 -96 16 -148 -17 -45 -21 -87 -8 -87 21 0 51 185 33 203 -6 6 -11 17 -11 25
0 7 -16 33 -35 57 -22 26 -38 58 -41 81 -3 22 -9 68 -13 104 -8 67 -44 187
-61 204 -6 6 -10 16 -10 23 0 8 -9 24 -20 36 l-20 21 11 -34z"/>
<path d="M642 3988 c-7 -7 -12 -18 -12 -25 0 -7 -4 -21 -9 -31 -32 -62 -45
-110 -45 -174 -1 -41 3 -73 10 -75 6 -2 8 10 6 33 -3 20 1 55 8 78 23 75 52
161 61 178 11 20 -3 32 -19 16z"/>
<path d="M721 3878 c-5 -18 -11 -80 -13 -138 -3 -96 -1 -105 16 -108 16 -3 18
0 12 19 -4 13 -7 29 -6 34 0 6 3 51 6 100 4 50 10 95 15 101 9 11 2 24 -12 24
-4 0 -12 -15 -18 -32z"/>
<path d="M6503 3863 c14 -70 20 -90 33 -120 8 -17 14 -38 14 -47 0 -21 21 -66
32 -66 10 0 0 62 -17 105 -7 17 -16 50 -20 75 -8 52 -21 80 -36 80 -7 0 -9
-11 -6 -27z"/>
<path d="M6706 3872 c-5 -9 31 -166 45 -194 5 -10 9 -29 9 -42 0 -13 7 -26 15
-30 12 -4 14 0 11 17 -19 87 -26 132 -26 157 0 16 -9 45 -21 64 -22 38 -25 41
-33 28z"/>
<path d="M6248 3835 c-3 -3 22 -33 54 -68 78 -82 99 -110 138 -185 31 -59 46
-79 55 -70 3 2 -10 36 -29 74 -21 44 -60 99 -109 152 -43 46 -77 88 -77 93 0
10 -23 12 -32 4z"/>
<path d="M6833 3825 c-3 -9 2 -23 10 -33 9 -9 23 -39 32 -67 8 -27 20 -58 25
-67 6 -10 10 -36 10 -58 0 -22 5 -40 10 -40 20 0 10 87 -21 183 -31 94 -51
119 -66 82z"/>
<path d="M5020 3810 c0 -5 9 -10 21 -10 11 0 17 5 14 10 -3 6 -13 10 -21 10
-8 0 -14 -4 -14 -10z"/>
<path d="M3847 3733 c-31 -30 69 -163 123 -163 21 0 9 28 -15 34 -14 4 -25 13
-25 21 0 8 -10 20 -22 26 -30 16 -28 13 -42 53 -7 20 -16 33 -19 29z"/>
<path d="M4475 3719 c-16 -4 -36 -18 -43 -29 -16 -26 -2 -26 31 0 14 11 32 20
41 20 9 0 16 5 16 10 0 11 -4 11 -45 -1z"/>
<path d="M3354 3693 c-3 -10 -11 -31 -16 -46 -6 -15 -7 -31 -4 -35 13 -12 36
30 36 65 0 36 -7 43 -16 16z"/>
<path d="M7430 3686 c0 -11 8 -43 17 -73 16 -52 16 -53 -5 -73 -25 -23 -29
-39 -36 -130 -10 -119 -18 -180 -27 -186 -5 -3 -9 -17 -9 -32 0 -15 -7 -45
-15 -67 -8 -22 -14 -49 -15 -60 0 -19 0 -19 13 0 8 11 17 31 21 45 15 50 48
237 55 310 4 50 15 88 30 114 21 37 22 43 10 80 -7 23 -19 52 -26 66 -11 21
-13 22 -13 6z"/>
<path d="M3915 3680 c-3 -5 3 -10 15 -10 12 0 18 5 15 10 -3 6 -10 10 -15 10
-5 0 -12 -4 -15 -10z"/>
<path d="M3265 3662 c-6 -5 -30 -14 -55 -21 -25 -7 -52 -17 -61 -21 -20 -10
-109 -25 -128 -21 -7 1 -20 0 -29 -4 -14 -5 -14 -7 -2 -15 15 -10 77 -3 95 10
6 4 36 10 68 14 32 3 65 10 75 15 9 5 32 15 50 21 17 7 32 16 32 21 0 11 -33
12 -45 1z"/>
<path d="M2658 3653 c7 -3 16 -2 19 1 4 3 -2 6 -13 5 -11 0 -14 -3 -6 -6z"/>
<path d="M2690 3645 c0 -12 78 -36 129 -40 31 -2 45 -2 31 1 -14 3 -29 10 -34
15 -6 5 -22 9 -37 9 -15 0 -31 5 -34 10 -6 10 -55 14 -55 5z"/>
<path d="M3270 3594 c-22 -12 -23 -14 -5 -14 11 1 29 7 39 15 26 19 1 18 -34
-1z"/>
<path d="M4320 3571 c-12 -17 -20 -38 -18 -47 2 -11 11 -2 27 25 28 51 22 65
-9 22z"/>
<path d="M3020 3550 c0 -5 5 -10 10 -10 6 0 10 5 10 10 0 6 -4 10 -10 10 -5 0
-10 -4 -10 -10z"/>
<path d="M3050 3532 c0 -5 11 -19 25 -32 35 -33 55 -76 55 -121 0 -21 5 -41
10 -44 6 -4 10 13 10 42 0 49 -23 107 -56 144 -17 19 -44 26 -44 11z"/>
<path d="M4654 3506 c-36 -16 -44 -32 -44 -90 0 -48 11 -66 60 -95 50 -30 89
-27 129 9 30 28 32 34 26 73 -10 64 -24 93 -51 106 -33 15 -82 13 -120 -3z"/>
<path d="M4287 3483 c-4 -3 -7 -16 -7 -29 0 -12 -5 -24 -11 -26 -6 -2 -9 -22
-7 -48 4 -50 10 -41 29 43 12 54 10 75 -4 60z"/>
<path d="M105 3340 c1 -129 3 -137 30 -185 15 -27 34 -54 41 -58 8 -4 14 -14
14 -21 0 -8 7 -16 15 -20 8 -3 15 -16 15 -29 0 -13 13 -39 30 -57 17 -18 30
-38 30 -44 0 -14 44 -102 67 -137 10 -14 27 -40 39 -57 19 -30 169 -162 183
-162 3 0 13 -13 22 -29 10 -16 33 -37 53 -46 19 -9 40 -23 47 -31 6 -8 18 -14
26 -14 31 0 104 -53 122 -89 25 -48 57 -76 106 -92 53 -17 63 -26 86 -70 19
-39 65 -69 104 -69 30 0 62 -18 109 -63 44 -41 83 -53 50 -15 -64 72 -104 98
-152 98 -32 0 -70 32 -106 90 -16 27 -30 36 -54 38 -36 4 -96 57 -142 125 -24
36 -69 67 -97 67 -24 0 -153 90 -153 106 0 13 -61 60 -88 68 -12 4 -27 16 -32
27 -6 10 -17 19 -25 19 -8 0 -15 6 -15 13 0 8 -9 22 -20 32 -11 10 -20 22 -20
27 0 5 -16 31 -35 59 -19 28 -38 65 -43 83 -5 18 -28 60 -51 93 -22 33 -41 65
-41 70 0 5 -13 22 -30 38 -16 16 -30 34 -30 41 0 6 -11 37 -25 68 -27 62 -32
105 -13 124 18 18 22 16 43 -33 11 -25 26 -45 33 -45 6 0 12 2 12 4 0 7 -61
119 -80 146 -10 14 -20 34 -22 45 -2 11 -4 -41 -3 -115z"/>
<path d="M2629 3397 c-27 -21 -39 -54 -39 -110 0 -44 5 -59 25 -81 21 -23 31
-26 92 -26 86 0 108 14 117 74 8 51 -1 75 -47 124 -27 28 -37 32 -81 32 -28 0
-58 -6 -67 -13z"/>
<path d="M3429 3315 c-3 -27 4 -71 12 -79 11 -12 12 -230 1 -254 -5 -9 -19
-37 -31 -62 l-23 -45 33 33 34 32 0 180 c0 130 -3 182 -12 192 -7 6 -13 8 -14
3z"/>
<path d="M6492 3288 c-7 -7 -12 -27 -12 -44 0 -18 -4 -35 -9 -38 -4 -3 -11
-28 -15 -55 -4 -27 -26 -89 -50 -138 -25 -48 -48 -101 -52 -117 -6 -24 -4 -27
12 -24 12 2 21 15 25 38 3 19 21 63 39 97 32 63 41 90 65 198 7 33 16 68 20
78 8 20 -5 23 -23 5z"/>
<path d="M439 3228 c-21 -80 12 -199 90 -318 33 -51 41 -66 52 -90 20 -46 25
-54 37 -58 20 -6 13 26 -14 69 -29 47 -54 90 -102 179 -34 62 -36 70 -36 163
0 53 -3 97 -8 97 -4 0 -12 -19 -19 -42z"/>
<path d="M6641 3159 c-12 -57 -18 -76 -42 -119 -5 -8 -19 -35 -31 -60 -12 -25
-37 -66 -55 -91 -36 -50 -43 -82 -17 -77 9 2 22 21 29 42 8 22 23 52 34 66 27
38 91 164 91 182 0 8 4 18 9 24 5 5 11 28 15 52 5 32 3 42 -8 42 -9 0 -18 -22
-25 -61z"/>
<path d="M5175 3158 c-25 -12 -88 -89 -79 -97 5 -5 104 93 104 104 0 6 0 6
-25 -7z"/>
<path d="M4390 3060 c11 -21 84 -63 93 -54 7 7 -78 74 -93 74 -7 0 -7 -7 0
-20z"/>
<path d="M6767 3062 c-5 -6 -14 -22 -20 -35 -51 -92 -85 -144 -123 -186 -45
-50 -51 -61 -34 -61 32 0 195 241 188 277 -3 13 -6 15 -11 5z"/>
<path d="M2230 3054 c0 -6 11 -21 25 -34 21 -20 25 -21 25 -6 0 9 -8 20 -17
23 -10 4 -21 11 -25 17 -6 8 -8 8 -8 0z"/>
<path d="M3055 3039 c-10 -15 3 -25 16 -12 7 7 7 13 1 17 -6 3 -14 1 -17 -5z"/>
<path d="M5003 3030 c-52 -25 -69 -46 -28 -36 27 7 85 42 85 52 0 8 -15 3 -57
-16z"/>
<path d="M7303 3005 c-13 -19 -23 -41 -23 -48 0 -18 -55 -120 -96 -177 -17
-25 -46 -73 -63 -107 -24 -49 -40 -67 -71 -83 -31 -16 -46 -33 -67 -78 -15
-31 -33 -63 -40 -70 -7 -7 -13 -18 -13 -23 0 -15 40 10 46 29 3 9 10 25 15 34
5 10 9 23 9 30 1 21 46 66 70 70 13 1 28 12 34 23 6 11 13 22 16 25 3 3 17 27
30 53 14 27 39 65 56 85 16 20 38 55 48 77 10 22 34 72 52 112 19 39 34 74 34
77 0 16 -17 2 -37 -29z"/>
<path d="M713 3002 c9 -10 19 -37 23 -62 7 -43 58 -110 84 -110 17 0 12 10
-19 36 -23 19 -31 36 -36 77 -8 60 -19 77 -48 77 -19 0 -19 -1 -4 -18z"/>
<path d="M3017 3013 c-12 -12 -7 -22 8 -17 8 4 15 10 15 15 0 11 -14 12 -23 2z"/>
<path d="M2294 2992 c3 -5 24 -17 48 -26 24 -10 53 -23 65 -28 11 -6 27 -8 34
-6 6 2 -18 18 -55 36 -65 31 -103 41 -92 24z"/>
<path d="M4510 2997 c0 -13 60 -34 83 -30 14 3 28 0 31 -6 5 -7 44 -10 109 -9
l102 2 -85 3 c-47 2 -94 7 -105 12 -11 5 -33 12 -50 15 -16 3 -42 8 -57 12
-16 3 -28 4 -28 1z"/>
<path d="M2963 2973 c-29 -14 -44 -33 -28 -33 14 0 65 32 65 40 0 12 3 12 -37
-7z"/>
<path d="M4863 2973 c9 -2 25 -2 35 0 9 3 1 5 -18 5 -19 0 -27 -2 -17 -5z"/>
<path d="M2885 2920 c-3 -5 3 -10 14 -10 12 0 21 5 21 10 0 6 -6 10 -14 10 -8
0 -18 -4 -21 -10z"/>
<path d="M2499 2906 c8 -9 22 -16 32 -16 10 0 21 -4 24 -10 3 -5 19 -10 36
-10 16 0 29 5 29 10 0 6 -9 10 -21 10 -11 0 -28 4 -37 9 -9 4 -30 11 -46 15
-26 6 -28 5 -17 -8z"/>
<path d="M2775 2881 c-6 -6 -41 -12 -80 -14 l-70 -3 80 -2 c84 -2 125 4 125
19 0 12 -44 11 -55 0z"/>
<path d="M5336 2881 c-3 -5 -20 -11 -38 -14 -46 -8 -110 -23 -129 -31 -11 -5
-24 1 -38 15 l-21 23 0 -27 c0 -19 -5 -27 -18 -27 -10 0 -22 -4 -27 -9 -6 -5
-35 -12 -65 -15 -30 -3 -93 -9 -139 -15 -105 -12 -115 -8 -106 35 5 28 3 34
-11 34 -12 0 -15 -7 -12 -30 7 -49 -7 -53 -170 -48 -81 2 -133 1 -117 -3 17
-4 85 -7 152 -8 82 -1 124 -5 129 -13 4 -6 6 -33 5 -60 -1 -28 2 -48 9 -48 5
0 10 21 10 49 0 27 6 53 13 58 13 11 180 33 246 33 22 0 43 5 46 10 3 6 26 10
51 10 36 0 44 -3 44 -19 0 -21 27 -48 37 -37 4 4 -1 19 -10 35 l-17 28 43 17
c23 9 49 16 56 16 23 0 121 34 121 43 0 10 -38 9 -44 -2z"/>
<path d="M2132 2821 c2 -14 9 -26 16 -29 17 -5 15 10 -3 34 -15 18 -15 18 -13
-5z"/>
<path d="M2166 2753 c7 -29 34 -66 34 -47 0 22 -22 74 -31 74 -5 0 -6 -12 -3
-27z"/>
<path d="M3227 2703 c-35 -5 -62 -46 -59 -88 2 -19 -2 -36 -8 -40 -5 -3 -10
-18 -10 -33 0 -29 -35 -129 -53 -150 -15 -19 12 -43 41 -35 21 5 22 7 7 29
-10 16 -12 30 -7 41 5 10 14 27 19 39 6 11 14 52 18 90 12 109 31 134 100 134
27 0 40 -8 64 -37 l31 -38 0 -166 c0 -91 -3 -169 -7 -173 -4 -4 -8 -23 -9 -44
-1 -20 -9 -73 -19 -117 -9 -44 -20 -109 -26 -145 -9 -60 -17 -87 -41 -133 -5
-10 -13 -54 -18 -97 -5 -43 -13 -87 -18 -97 -14 -27 -33 -84 -42 -123 -8 -37
-36 -94 -58 -119 -24 -25 -48 -101 -33 -101 6 0 11 6 11 13 0 15 62 114 82
130 8 7 23 48 32 92 10 44 22 88 27 98 5 10 14 52 19 94 6 43 15 82 20 87 6 6
10 20 10 31 0 12 3 25 7 29 7 7 8 9 24 116 6 41 17 82 25 89 11 12 65 16 281
19 148 2 272 8 278 13 12 12 380 12 419 0 36 -11 187 -31 234 -31 17 1 32 -4
32 -9 0 -5 12 -11 28 -14 15 -3 61 -12 102 -20 41 -8 80 -16 85 -17 6 -1 17
-2 25 -1 26 2 -4 21 -41 26 -35 4 -73 12 -194 40 -38 9 -95 21 -125 27 -61 13
-407 16 -845 8 -276 -5 -280 -5 -277 15 2 11 6 35 9 53 3 18 9 35 14 38 13 8
11 391 -2 417 -33 63 -60 74 -152 60z"/>
<path d="M3700 2700 c-12 -8 -11 -10 8 -10 12 0 22 5 22 10 0 13 -11 13 -30 0z"/>
<path d="M6121 2602 c-7 -13 -7 -22 0 -29 11 -11 -17 -93 -31 -93 -4 0 -14
-15 -21 -32 -7 -18 -17 -37 -21 -43 -66 -82 -79 -105 -59 -105 14 0 39 27 46
50 3 11 10 20 15 20 4 0 10 8 14 18 3 9 24 46 46 81 46 72 65 151 37 151 -9 0
-21 -8 -26 -18z"/>
<path d="M1210 2581 c0 -5 33 -28 73 -51 39 -22 82 -47 94 -56 13 -9 23 -11
27 -5 6 9 -73 71 -89 71 -4 0 -19 8 -33 19 -34 23 -72 35 -72 22z"/>
<path d="M6193 2553 c-12 -21 -30 -54 -41 -74 -11 -20 -26 -47 -34 -60 -7 -13
-32 -45 -55 -71 -24 -26 -43 -52 -43 -58 0 -19 19 -10 37 18 9 15 30 39 45 55
15 15 28 31 28 36 0 5 6 14 14 20 8 7 28 41 45 76 17 35 36 67 41 70 14 9 12
25 -3 25 -7 0 -23 -17 -34 -37z"/>
<path d="M1767 2543 c-11 -10 -8 -113 3 -113 6 0 10 20 10 44 0 25 5 48 10 51
6 4 8 11 5 16 -7 11 -19 12 -28 2z"/>
<path d="M1055 2445 c50 -47 100 -91 111 -97 67 -40 87 -49 102 -46 11 2 -7
17 -47 38 -36 19 -88 59 -116 87 -28 29 -56 53 -62 53 -5 0 -20 11 -33 25 -13
14 -28 25 -34 25 -6 0 30 -39 79 -85z"/>
<path d="M1122 2508 c4 -12 27 -27 93 -64 17 -9 32 -20 35 -23 9 -11 92 -51
106 -51 30 0 11 18 -45 44 -32 14 -64 33 -71 41 -7 8 -18 15 -25 15 -7 0 -23
8 -36 18 -33 25 -62 35 -57 20z"/>
<path d="M6418 2475 c-6 -14 -15 -25 -20 -25 -4 0 -8 -4 -8 -10 0 -13 -63 -96
-106 -139 -19 -19 -34 -38 -34 -43 0 -19 34 -2 49 24 9 14 37 51 64 81 26 30
47 59 47 64 0 5 9 18 20 28 21 19 27 45 10 45 -6 0 -16 -11 -22 -25z"/>
<path d="M6869 2401 c-18 -11 -47 -26 -64 -34 -16 -8 -65 -48 -107 -91 -42
-42 -84 -76 -92 -76 -20 0 -105 -27 -136 -44 -14 -7 -38 -16 -55 -20 -16 -4
-47 -18 -67 -32 -21 -13 -40 -24 -44 -24 -3 0 -23 -13 -44 -30 -21 -16 -43
-30 -49 -30 -7 0 -25 -7 -42 -15 -22 -12 -34 -13 -49 -5 -17 9 -27 2 -77 -52
-99 -107 -105 -111 -180 -136 -23 -7 -41 -7 -61 0 -22 9 -36 8 -60 -3 -18 -8
-32 -17 -32 -21 0 -5 -8 -8 -18 -8 -11 0 -45 -9 -77 -20 -32 -11 -71 -20 -86
-20 -30 0 -98 -30 -99 -42 0 -13 29 -9 59 6 15 8 45 17 67 19 50 6 131 32 150
48 9 7 41 12 77 12 104 -1 162 26 251 118 67 69 79 78 103 73 20 -4 39 2 66
20 21 14 42 26 46 26 5 0 31 15 59 33 27 19 73 42 103 51 30 10 63 23 74 30
11 7 41 18 68 26 26 7 50 17 53 21 3 5 14 9 24 9 11 0 34 17 52 37 59 68 93
98 139 121 54 28 95 59 88 66 -3 3 -21 -3 -40 -13z"/>
<path d="M1348 1993 c7 -3 16 -2 19 1 4 3 -2 6 -13 5 -11 0 -14 -3 -6 -6z"/>
<path d="M1380 1982 c0 -7 122 -72 135 -72 3 0 5 4 5 10 0 10 -111 70 -130 70
-5 0 -10 -4 -10 -8z"/>
<path d="M1760 1847 c-14 -7 -36 -20 -50 -29 -19 -14 -21 -18 -7 -18 9 0 17 4
17 8 0 4 16 14 35 21 19 7 35 17 35 22 0 5 -1 9 -2 8 -2 0 -14 -6 -28 -12z"/>
<path d="M1512 1810 c-15 -48 -15 -60 -2 -60 6 0 10 9 10 19 0 11 5 23 10 26
12 7 14 55 2 55 -4 0 -13 -18 -20 -40z"/>
<path d="M3706 1831 c-3 -5 -51 -12 -106 -16 -55 -4 -102 -10 -104 -14 -2 -3
48 -2 112 2 247 16 334 18 365 8 37 -13 48 -6 21 14 -14 11 -51 14 -151 15
-72 0 -134 -4 -137 -9z"/>
<path d="M1488 1734 c-5 -4 -8 -16 -8 -28 0 -14 3 -17 11 -9 6 6 9 19 7 28 -1
9 -6 13 -10 9z"/>
<path d="M1464 1575 c-3 -14 -3 -33 0 -42 6 -15 8 -15 16 -3 13 20 13 70 0 70
-5 0 -12 -11 -16 -25z"/>
<path d="M1480 1466 c0 -8 5 -18 10 -21 6 -3 10 1 10 9 0 8 -4 18 -10 21 -5 3
-10 -1 -10 -9z"/>
<path d="M1552 1349 c2 -7 10 -15 17 -17 8 -3 12 1 9 9 -2 7 -10 15 -17 17 -8
3 -12 -1 -9 -9z"/>
<path d="M1580 1316 c0 -2 7 -9 15 -16 12 -10 15 -10 15 4 0 9 -7 16 -15 16
-8 0 -15 -2 -15 -4z"/>
<path d="M3075 1282 c-16 -12 -37 -53 -30 -60 8 -8 44 38 45 56 0 14 -1 14
-15 4z"/>
<path d="M1650 1232 c0 -4 13 -22 29 -39 15 -17 31 -38 34 -47 4 -9 11 -16 16
-16 11 0 -21 62 -47 93 -16 18 -32 23 -32 9z"/>
<path d="M3014 1192 c-12 -8 -54 -67 -54 -76 0 -18 23 -1 46 34 26 39 29 56 8
42z"/>
<path d="M3546 1121 c-4 -7 -5 -15 -2 -18 9 -9 19 4 14 18 -4 11 -6 11 -12 0z"/>
<path d="M1740 1106 c0 -7 7 -19 15 -26 16 -13 20 -3 9 24 -8 20 -24 21 -24 2z"/>
<path d="M1780 1040 c6 -11 13 -20 15 -20 3 0 5 9 5 20 0 11 -7 20 -15 20 -13
0 -14 -4 -5 -20z"/>
<path d="M1800 992 c0 -14 43 -81 53 -82 12 0 8 18 -8 34 -8 8 -15 19 -15 24
0 5 -7 15 -15 22 -9 8 -15 8 -15 2z"/>
<path d="M2800 935 c-13 -14 -31 -25 -40 -25 -18 0 -90 -72 -90 -90 0 -5 -3
-10 -8 -10 -18 0 -137 -262 -152 -335 -7 -33 -20 -78 -30 -100 -23 -51 -31
-125 -13 -125 8 0 13 14 13 39 0 22 5 43 10 46 6 3 10 21 10 39 0 18 3 36 7
39 9 10 54 136 60 172 3 17 11 37 18 45 8 8 16 27 20 42 4 14 15 34 26 44 10
9 19 22 19 28 0 26 47 96 71 107 15 6 37 21 50 35 12 13 27 24 32 24 10 0 36
30 37 43 0 14 -17 7 -40 -18z"/>
<path d="M1850 883 c1 -25 39 -75 40 -51 0 22 -21 68 -32 68 -4 0 -8 -8 -8
-17z"/>
<path d="M3487 813 c-10 -9 25 -32 49 -33 29 0 123 -91 145 -140 10 -22 23
-40 29 -40 17 0 11 26 -10 45 -10 9 -24 32 -30 50 -12 36 -92 105 -121 105
-10 0 -21 5 -24 10 -7 11 -28 13 -38 3z"/>
<path d="M4147 741 c-45 -44 -78 -83 -74 -88 5 -4 14 0 21 10 7 9 17 17 21 17
4 0 36 27 72 60 l64 60 134 0 c83 0 135 4 135 10 0 6 -55 10 -145 10 l-146 0
-82 -79z"/>
<path d="M1890 781 c0 -16 -9 -50 -20 -76 -22 -50 -24 -65 -12 -65 4 0 13 15
20 33 7 17 18 40 23 49 12 24 12 88 -1 88 -5 0 -10 -13 -10 -29z"/>
<path d="M5850 688 c0 -8 9 -23 20 -33 16 -15 20 -15 20 -3 0 8 -9 23 -20 33
-16 15 -20 15 -20 3z"/>
<path d="M5890 611 c0 -11 5 -23 10 -26 6 -3 10 -19 10 -36 0 -16 4 -29 10
-29 10 0 12 61 3 93 -6 23 -33 22 -33 -2z"/>
<path d="M1841 604 c0 -11 3 -14 6 -6 3 7 2 16 -1 19 -3 4 -6 -2 -5 -13z"/>
<path d="M1821 564 c0 -11 3 -14 6 -6 3 7 2 16 -1 19 -3 4 -6 -2 -5 -13z"/>
</g>
</svg>
